<svg width="14" height="17" viewBox="0 0 14 17" fill="none" xmlns="http://www.w3.org/2000/svg">
<path d="M11.7348 9.47912L12.2246 9.54728L11.7348 9.47912ZM11.5403 10.8773L12.03 10.9455L11.5403 10.8773ZM2.26124 10.8773L2.75102 10.8092L2.26124 10.8773ZM2.06666 9.47912L1.57688 9.54728L2.06666 9.47912ZM4.81174 16.1232L4.61948 16.5788L4.81174 16.1232ZM2.80268 13.767L3.26683 13.5965V13.5965L2.80268 13.767ZM10.9988 13.767L11.463 13.9376L10.9988 13.767ZM8.98977 16.1232L8.79751 15.6676L8.98977 16.1232ZM2.20082 6.62893C2.17499 6.35705 1.93365 6.15759 1.66177 6.18342C1.38989 6.20925 1.19043 6.45059 1.21626 6.72247L2.20082 6.62893ZM12.5852 6.72247C12.6111 6.45059 12.4116 6.20925 12.1397 6.18342C11.8679 6.15759 11.6265 6.35705 11.6007 6.62893L12.5852 6.72247ZM12.8347 5.68671C13.1078 5.68671 13.3292 5.46531 13.3292 5.19221C13.3292 4.91911 13.1078 4.69772 12.8347 4.69772V5.68671ZM0.966797 4.69772C0.693694 4.69772 0.472301 4.91911 0.472301 5.19221C0.472301 5.46531 0.693694 5.68671 0.966797 5.68671V4.69772ZM9.86773 5.19221V5.68671H10.3622V5.19221H9.86773ZM3.93377 5.19221H3.43928V5.68671H3.93377V5.19221ZM11.2451 9.41095L11.0505 10.8092L12.03 10.9455L12.2246 9.54728L11.2451 9.41095ZM2.75102 10.8092L2.55643 9.41096L1.57688 9.54728L1.77147 10.9455L2.75102 10.8092ZM6.90075 15.8239C5.77205 15.8239 5.35222 15.8145 5.00399 15.6676L4.61948 16.5788C5.19642 16.8222 5.86089 16.8129 6.90075 16.8129V15.8239ZM1.77147 10.9455C1.97938 12.4395 2.09139 13.2649 2.33852 13.9376L3.26683 13.5965C3.06554 13.0486 2.96607 12.3544 2.75102 10.8092L1.77147 10.9455ZM5.00399 15.6676C4.29968 15.3704 3.65356 14.6491 3.26683 13.5965L2.33852 13.9376C2.79033 15.1673 3.59371 16.1459 4.61948 16.5788L5.00399 15.6676ZM11.0505 10.8092C10.8354 12.3544 10.736 13.0486 10.5347 13.5965L11.463 13.9376C11.7101 13.2649 11.8221 12.4395 12.03 10.9455L11.0505 10.8092ZM6.90075 16.8129C7.94061 16.8129 8.60508 16.8222 9.18202 16.5788L8.79751 15.6676C8.44928 15.8145 8.02945 15.8239 6.90075 15.8239V16.8129ZM10.5347 13.5965C10.1479 14.6491 9.50182 15.3704 8.79751 15.6676L9.18202 16.5788C10.2078 16.1459 11.0112 15.1673 11.463 13.9376L10.5347 13.5965ZM2.55643 9.41096C2.39175 8.2276 2.26849 7.34114 2.20082 6.62893L1.21626 6.72247C1.28644 7.4611 1.41336 8.37233 1.57688 9.54728L2.55643 9.41096ZM12.2246 9.54728C12.3881 8.37233 12.5151 7.4611 12.5852 6.72247L11.6007 6.62893C11.533 7.34114 11.4098 8.22759 11.2451 9.41095L12.2246 9.54728ZM12.8347 4.69772H0.966797V5.68671H12.8347V4.69772ZM9.37323 4.45047V5.19221H10.3622V4.45047H9.37323ZM9.86773 4.69772H3.93377V5.68671H9.86773V4.69772ZM4.42827 5.19221V4.45047H3.43928V5.19221H4.42827ZM6.90075 1.97799C8.26626 1.97799 9.37323 3.08495 9.37323 4.45047H10.3622C10.3622 2.53875 8.81247 0.988994 6.90075 0.988994V1.97799ZM6.90075 0.988994C4.98903 0.988994 3.43928 2.53875 3.43928 4.45047H4.42827C4.42827 3.08495 5.53524 1.97799 6.90075 1.97799V0.988994Z" fill="#FE0000"/>
</svg>
