<svg width="23" height="30" viewBox="0 0 23 30" fill="none" xmlns="http://www.w3.org/2000/svg">
<path d="M22 12.4753C22 16.2972 18.1813 22.0013 15.1498 25.9275C13.5682 27.9758 12.7774 29 11.5 29C10.2226 29 9.43182 27.9758 7.85021 25.9275C4.81866 22.0013 1 16.2972 1 12.4753C1 6.13765 5.70101 1 11.5 1C17.299 1 22 6.13765 22 12.4753Z" fill="#22A20D"/>
<path d="M7.5625 12.9969C7.5625 15.2054 9.32538 16.8421 11.5 16.8421C13.6746 16.8421 15.4375 15.2054 15.4375 12.9969C15.4375 10.7883 13.6746 8.99791 11.5 8.99791C9.32538 8.99791 7.5625 10.7883 7.5625 12.9969Z" fill="#22A20D"/>
<path d="M22 12.4753C22 16.2972 18.1813 22.0013 15.1498 25.9275C13.5682 27.9758 12.7774 29 11.5 29C10.2226 29 9.43182 27.9758 7.85021 25.9275C4.81866 22.0013 1 16.2972 1 12.4753C1 6.13765 5.70101 1 11.5 1C17.299 1 22 6.13765 22 12.4753Z" stroke="black" stroke-width="1.5"/>
<path d="M7.5625 12.9969C7.5625 15.2054 9.32538 16.8421 11.5 16.8421C13.6746 16.8421 15.4375 15.2054 15.4375 12.9969C15.4375 10.7883 13.6746 8.99791 11.5 8.99791C9.32538 8.99791 7.5625 10.7883 7.5625 12.9969Z" stroke="black" stroke-width="1.5"/>
<ellipse cx="11.5001" cy="13.1579" rx="4.9" ry="4.78947" fill="black"/>
</svg>
