<svg width="24" height="24" viewBox="0 0 24 24" fill="none" xmlns="http://www.w3.org/2000/svg">
<g clip-path="url(#clip0_1_83)">
<path d="M12 2C13.5977 2 14.9037 3.24892 14.9949 4.82373L15 5V12.9559L15.0093 12.9771C15.0228 13.0016 15.0504 13.0376 15.0965 13.074C16.2541 13.988 17 15.4072 17 17C17 19.7614 14.7614 22 12 22C9.23858 22 7 19.7614 7 17C7 15.4072 7.74591 13.988 8.90349 13.074C8.93425 13.0497 8.95677 13.0256 8.97236 13.005L9 12.9559V5C9 3.34315 10.3431 2 12 2ZM12 4C11.4872 4 11.0645 4.38604 11.0067 4.88338L11 5V12.9583C11 13.6331 10.6633 14.1841 10.2556 14.5489L10.1429 14.6437C9.44499 15.1948 9 16.0451 9 17C9 18.6569 10.3431 20 12 20C13.6569 20 15 18.6569 15 17C15 16.1133 14.6163 15.3168 14.0027 14.7663L13.8571 14.6437C13.4387 14.3133 13.0672 13.791 13.0081 13.1392L13 12.9583V5C13 4.44772 12.5523 4 12 4ZM14 17C14 17.2626 13.9483 17.5227 13.8478 17.7654C13.7472 18.008 13.5999 18.2285 13.4142 18.4142C13.2285 18.5999 13.008 18.7472 12.7654 18.8478C12.5227 18.9483 12.2626 19 12 19C11.7374 19 11.4773 18.9483 11.2346 18.8478C10.992 18.7472 10.7715 18.5999 10.5858 18.4142C10.4001 18.2285 10.2528 18.008 10.1522 17.7654C10.0768 17.5834 10.0289 17.3916 10.0096 17.1962L10 17H14Z" fill="#1D5373"/>
</g>
<defs>
<clipPath id="clip0_1_83">
<rect width="24" height="24" fill="white"/>
</clipPath>
</defs>
</svg>
