<svg width="19" height="20" viewBox="0 0 19 20" fill="none" xmlns="http://www.w3.org/2000/svg">
<path d="M6.2 10H5.45H6.2ZM11.8 10H12.55H11.8ZM9 12.8V13.55V12.8ZM9 8.6V9.35V8.6ZM10.4486 16.8499L10.603 17.5839L10.4486 16.8499ZM7.55142 16.8499L7.39698 17.5839L7.55142 16.8499ZM2.51703 7.35484L1.82271 7.07125L2.51703 7.35484ZM2.15007 11.4486L1.41614 11.603L2.15007 11.4486ZM7.55142 3.15007L7.39698 2.41614L7.55142 3.15007ZM10.4486 3.15007L10.603 2.41614L10.4486 3.15007ZM15.4266 7.38009L15.6443 8.09781L15.4266 7.38009ZM2.51703 7.35484L1.82271 7.07125L1.58149 7.66184L2.12573 7.99467L2.51703 7.35484ZM2.57258 7.37984L2.35488 8.09755L2.57258 7.37984ZM14.7894 7.64013C15.0861 8.36728 15.25 9.16357 15.25 10H16.75C16.75 8.96591 16.5471 7.97736 16.1782 7.07337L14.7894 7.64013ZM15.25 10C15.25 10.4444 15.2037 10.8772 15.116 11.2941L16.5839 11.603C16.6928 11.0852 16.75 10.5488 16.75 10H15.25ZM15.116 11.2941C14.6084 13.7067 12.7067 15.6084 10.2942 16.116L10.603 17.5839C13.5975 16.9538 15.9538 14.5975 16.5839 11.603L15.116 11.2941ZM10.2942 16.116C9.87724 16.2037 9.44443 16.25 9 16.25V17.75C9.54885 17.75 10.0852 17.6928 10.603 17.5839L10.2942 16.116ZM9 16.25C8.55557 16.25 8.12276 16.2037 7.70585 16.116L7.39698 17.5839C7.91485 17.6928 8.45116 17.75 9 17.75V16.25ZM2.75 10C2.75 9.16291 2.91416 8.36604 3.21135 7.63842L1.82271 7.07125C1.45325 7.97581 1.25 8.96511 1.25 10H2.75ZM7.70585 16.116C5.29329 15.6084 3.39165 13.7067 2.884 11.2941L1.41614 11.603C2.04624 14.5975 4.40252 16.9538 7.39698 17.5839L7.70585 16.116ZM2.884 11.2941C2.79627 10.8772 2.75 10.4444 2.75 10H1.25C1.25 10.5488 1.30717 11.0852 1.41614 11.603L2.884 11.2941ZM3.21135 7.63842C3.98528 5.74356 5.66313 4.31383 7.70585 3.884L7.39698 2.41614C4.85963 2.95005 2.7819 4.72282 1.82271 7.07125L3.21135 7.63842ZM7.70585 3.884C8.12276 3.79627 8.55557 3.75 9 3.75V2.25C8.45116 2.25 7.91485 2.30717 7.39698 2.41614L7.70585 3.884ZM9 3.75C9.44443 3.75 9.87724 3.79627 10.2942 3.884L10.603 2.41614C10.0852 2.30717 9.54884 2.25 9 2.25V3.75ZM10.2942 3.884C12.3375 4.31396 14.0157 5.74442 14.7894 7.64013L16.1782 7.07337C15.2194 4.72388 13.1411 2.95021 10.603 2.41614L10.2942 3.884ZM9.73408 3.37805C9.92661 3.98144 10.6364 6.29407 10.9267 8.41273L12.4128 8.20915C12.1039 5.9545 11.3597 3.53839 11.1631 2.92208L9.73408 3.37805ZM10.9267 8.41273C11.0043 8.97949 11.05 9.51932 11.05 10H12.55C12.55 9.43059 12.4964 8.81927 12.4128 8.20915L10.9267 8.41273ZM15.2089 6.66238C14.4442 6.89431 13.0103 7.30085 11.5336 7.5734L11.8058 9.04848C13.3616 8.76136 14.8559 8.33693 15.6443 8.09781L15.2089 6.66238ZM11.5336 7.5734C10.6369 7.73889 9.75032 7.85 9 7.85V9.35C9.87989 9.35 10.867 9.22175 11.8058 9.04848L11.5336 7.5734ZM11.05 10C11.05 10.7132 10.9496 11.5503 10.7971 12.4033L12.2736 12.6674C12.4338 11.7715 12.55 10.8375 12.55 10H11.05ZM10.7971 12.4033C10.4629 14.2725 9.90056 16.1002 9.73408 16.6219L11.1631 17.0779C11.3359 16.5365 11.9219 14.6345 12.2736 12.6674L10.7971 12.4033ZM15.6219 10.7341C15.1002 10.9006 13.2725 11.4629 11.4034 11.7971L11.6674 13.2736C13.6345 12.9219 15.5365 12.3359 16.0779 12.1631L15.6219 10.7341ZM11.4034 11.7971C10.5503 11.9496 9.71319 12.05 9 12.05V13.55C9.83753 13.55 10.7715 13.4338 11.6674 13.2736L11.4034 11.7971ZM9 12.05C8.28681 12.05 7.44968 11.9496 6.59665 11.7971L6.33264 13.2736C7.22852 13.4338 8.16247 13.55 9 13.55V12.05ZM6.59665 11.7971C4.72751 11.4629 2.89982 10.9006 2.37805 10.7341L1.92208 12.1631C2.46353 12.3359 4.36548 12.9219 6.33264 13.2736L6.59665 11.7971ZM5.45 10C5.45 10.8375 5.56617 11.7715 5.72635 12.6674L7.20294 12.4033C7.05042 11.5503 6.95 10.7132 6.95 10H5.45ZM5.72635 12.6674C6.07808 14.6345 6.66414 16.5365 6.83691 17.0779L8.26593 16.6219C8.09944 16.1002 7.53714 14.2725 7.20294 12.4033L5.72635 12.6674ZM6.83691 2.92208C6.64026 3.53839 5.89609 5.9545 5.58721 8.20915L7.07333 8.41274C7.36358 6.29407 8.0734 3.98144 8.26593 3.37805L6.83691 2.92208ZM5.58721 8.20915C5.50363 8.81927 5.45 9.43059 5.45 10H6.95C6.95 9.51932 6.99569 8.97949 7.07333 8.41274L5.58721 8.20915ZM9 7.85C8.24968 7.85 7.36309 7.73889 6.46639 7.5734L6.19415 9.04849C7.13296 9.22175 8.12011 9.35 9 9.35V7.85ZM6.46639 7.5734C4.98912 7.30076 3.55476 6.89402 2.79028 6.66213L2.35488 8.09755C3.14305 8.33662 4.63783 8.76125 6.19415 9.04849L6.46639 7.5734ZM15.1381 6.69113C15.1593 6.68014 15.1832 6.67016 15.2089 6.66238L15.6443 8.09781C15.7097 8.07795 15.7713 8.05253 15.8294 8.02237L15.1381 6.69113ZM2.12573 7.99467C2.19593 8.0376 2.27243 8.07254 2.35488 8.09755L2.79028 6.66213C2.83338 6.6752 2.8732 6.69352 2.90832 6.715L2.12573 7.99467Z" fill="#1D5373"/>
</svg>
